<svg width="861" height="755" viewBox="0 0 861 755" fill="none" xmlns="http://www.w3.org/2000/svg">
<path d="M19.9538 0.128082C21.7286 0.12417 21.7286 0.12417 23.5392 0.120179C25.5064 0.123525 25.5064 0.123525 27.5133 0.126939C28.9116 0.125788 30.3099 0.1242 31.7082 0.122212C35.5646 0.118018 39.421 0.120109 43.2774 0.123198C47.4317 0.125452 51.586 0.121972 55.7403 0.119218C63.8876 0.11476 72.0348 0.115738 80.182 0.118631C86.808 0.120887 93.434 0.121197 100.06 0.120107C101.002 0.119954 101.944 0.119801 102.915 0.119643C104.829 0.119323 106.742 0.118999 108.656 0.11867C126.627 0.115815 144.599 0.119102 162.57 0.12447C177.975 0.12893 193.379 0.12817 208.784 0.123552C226.671 0.118192 244.558 0.116099 262.445 0.119164C264.356 0.119482 266.266 0.119797 268.177 0.120107C269.587 0.120338 269.587 0.120338 271.025 0.120575C277.634 0.121436 284.242 0.119984 290.85 0.117627C298.919 0.114813 306.987 0.115601 315.055 0.120908C319.168 0.123525 323.281 0.124585 327.394 0.121259C331.169 0.118253 334.943 0.119959 338.717 0.125237C340.711 0.126862 342.705 0.123641 344.698 0.120179C387.54 0.21217 425.521 16.4876 455.984 46.5039C474.831 65.4874 488.012 88.284 495.734 113.816C496.072 114.928 496.41 116.04 496.758 117.185C500.705 130.789 501.737 144.14 501.722 158.219C501.726 159.825 501.73 161.432 501.735 163.038C501.742 166.389 501.742 169.739 501.737 173.09C501.732 176.475 501.739 179.86 501.757 183.244C501.891 208.181 501.716 232.435 493.421 256.254C493.196 256.919 492.97 257.585 492.738 258.271C485.716 278.811 475.54 298.537 460.421 314.254C459.311 315.561 458.207 316.874 457.109 318.191C445.025 332.009 429.493 343.425 412.421 350.254C412.421 468.064 412.421 585.874 412.421 707.254C474.296 707.068 474.296 707.068 537.421 706.879C550.432 706.845 563.442 706.811 576.847 706.776C588.54 706.736 588.54 706.736 600.233 706.693C605.429 706.675 610.624 706.661 615.82 706.651C622.461 706.639 629.102 706.616 635.743 706.587C638.172 706.578 640.601 706.572 643.03 706.57C689.501 706.522 730.283 691.813 763.881 658.817C794.767 627.471 811.927 585.158 811.734 541.129C811.732 540.455 811.729 539.782 811.727 539.088C811.601 514.297 806.273 491.558 795.421 469.254C794.977 468.329 794.977 468.329 794.524 467.386C786.864 451.634 776.647 437.751 764.421 425.254C763.612 424.394 762.802 423.534 761.968 422.648C733.385 392.913 691.813 375.874 651.309 371.609C650.097 371.481 648.885 371.353 647.636 371.222C636.173 370.096 624.783 369.841 613.273 369.874C609.715 369.883 606.158 369.872 602.6 369.857C593.798 369.823 584.995 369.815 576.193 369.817C568.675 369.819 561.158 369.805 553.64 369.769C550.145 369.758 546.65 369.77 543.154 369.783C541.021 369.774 538.889 369.764 536.756 369.752C535.793 369.762 534.83 369.772 533.838 369.782C527.081 369.709 523.634 368.443 518.777 363.621C514.038 357.567 514.119 353.666 513.984 346.129C513.915 344.598 513.915 344.598 513.845 343.035C513.753 336.823 514.492 332.907 518.343 327.977C525.788 321.805 532.63 321.679 541.959 321.74C543.317 321.734 544.674 321.727 546.032 321.718C548.944 321.703 551.855 321.7 554.767 321.707C559.384 321.718 564 321.7 568.617 321.679C575.931 321.649 583.245 321.637 590.559 321.634C603.628 321.627 616.696 321.598 629.765 321.548C634.34 321.532 638.916 321.526 643.492 321.53C646.357 321.53 649.223 321.523 652.088 321.513C654.02 321.509 655.952 321.515 657.884 321.522C689.781 321.377 716.949 308.926 739.921 287.191C750.64 276.213 758.085 263.124 764.421 249.254C764.903 248.228 765.385 247.202 765.882 246.145C773.291 229.531 775.726 211.45 775.757 193.398C775.764 192.003 775.77 190.607 775.777 189.212C775.789 186.305 775.793 183.398 775.792 180.491C775.792 177.55 775.806 174.61 775.833 171.669C776.142 137.892 770.584 109.098 747.421 83.2539C746.822 82.572 746.222 81.8901 745.605 81.1875C727.469 61.798 700.973 49.9029 674.634 47.977C670.687 47.8777 666.747 47.862 662.8 47.885C661.304 47.8826 659.807 47.8787 658.311 47.8736C655.122 47.8654 651.934 47.866 648.745 47.8738C643.696 47.8855 638.648 47.8731 633.6 47.8572C621.074 47.8212 608.547 47.8148 596.021 47.8173C586.256 47.819 576.491 47.8118 566.726 47.7773C561.713 47.7606 556.7 47.7622 551.687 47.7781C548.568 47.7839 545.45 47.7732 542.331 47.7579C540.891 47.7542 539.451 47.7572 538.011 47.7677C528.908 47.8298 522.634 47.377 515.328 41.5977C509.812 34.3659 510.474 25.2483 511.091 16.5484C511.838 11.357 513.781 7.16461 517.984 3.87892C518.583 3.39681 519.183 2.9147 519.8 2.41799C523.124 0.0311441 525.444 0.126216 529.508 0.12021C531.457 0.113813 531.457 0.113813 533.445 0.107286C534.893 0.107635 536.342 0.108097 537.791 0.108659C539.31 0.105668 540.83 0.102266 542.349 0.0984815C546.488 0.0896219 550.628 0.0873023 554.767 0.0866657C557.359 0.0859551 559.95 0.0838205 562.542 0.0811685C571.6 0.0719015 580.658 0.0678344 589.716 0.06862C598.127 0.0692179 606.538 0.0587265 614.95 0.0428764C622.188 0.0297281 629.426 0.0244393 636.665 0.0250755C640.98 0.0253288 645.294 0.0225731 649.609 0.0118974C653.683 0.00209583 657.756 0.00221827 661.83 0.00941404C663.311 0.0104458 664.793 0.00818273 666.274 0.00205358C681.723 -0.0576352 696.727 1.16415 711.421 6.25392C712.597 6.66022 712.597 6.66022 713.797 7.07472C755.925 21.8816 789.809 49.8529 810.058 90.1445C819.98 110.879 823.538 132.807 823.695 155.609C823.703 156.716 823.703 156.716 823.711 157.845C823.738 161.77 823.757 165.694 823.771 169.619C823.785 172.797 823.812 175.974 823.853 179.151C824.275 212.375 821.472 244.782 805.359 274.522C804.507 276.095 803.682 277.681 802.859 279.27C796.456 291.448 788.465 301.972 779.421 312.254C778.222 313.638 778.222 313.638 776.999 315.051C764.727 329.016 749.723 339.488 733.421 348.254C733.421 348.914 733.421 349.574 733.421 350.254C734.065 350.317 734.708 350.38 735.37 350.445C753.675 352.926 770.825 367.488 784.421 379.254C785.214 379.936 786.007 380.618 786.824 381.32C789.4 383.588 791.916 385.908 794.421 388.254C794.935 388.729 795.449 389.203 795.979 389.692C810.768 403.451 822.625 419.632 832.421 437.254C833.101 438.439 833.781 439.624 834.46 440.809C844.501 458.638 852.457 478.952 855.421 499.254C855.669 500.867 855.918 502.481 856.167 504.094C856.824 508.378 857.477 512.662 858.091 516.952C858.379 518.958 858.684 520.962 858.992 522.965C861.286 542.044 859.728 561.828 855.955 580.575C855.477 582.972 855.055 585.371 854.652 587.781C845.373 639.457 810.353 687.151 768.328 717.299C762.935 721.049 757.304 724.362 751.609 727.629C750.302 728.379 750.302 728.379 748.969 729.144C744.254 731.8 739.518 734.188 734.542 736.313C732.553 737.196 730.67 738.181 728.757 739.215C723.414 741.92 717.692 743.554 711.977 745.291C710.054 745.876 708.136 746.474 706.218 747.074C684.941 753.621 664.265 754.562 642.133 754.559C638.615 754.561 635.097 754.574 631.579 754.586C623.92 754.608 616.262 754.616 608.604 754.621C603.815 754.625 599.027 754.631 594.239 754.638C580.958 754.658 567.678 754.674 554.397 754.677C553.127 754.678 553.127 754.678 551.832 754.678C550.116 754.678 548.4 754.679 546.685 754.679C545.833 754.679 544.981 754.679 544.104 754.679C543.252 754.68 542.399 754.68 541.521 754.68C527.672 754.684 513.825 754.711 499.976 754.748C485.729 754.786 471.481 754.805 457.233 754.806C449.245 754.806 441.257 754.815 433.269 754.844C426.478 754.868 419.686 754.875 412.895 754.86C409.432 754.853 405.97 754.854 402.508 754.877C398.751 754.897 394.997 754.887 391.24 754.869C390.151 754.882 389.061 754.895 387.939 754.909C381.212 754.834 376.468 753.892 371.421 749.254C365.92 742.866 366.874 735.136 366.94 727.138C366.939 725.581 366.935 724.024 366.93 722.467C366.921 718.195 366.937 713.925 366.957 709.653C366.974 705.045 366.968 700.436 366.965 695.827C366.963 687.845 366.976 679.863 366.998 671.88C367.031 660.339 367.041 648.798 367.046 637.256C367.055 618.531 367.082 599.806 367.12 581.081C367.156 562.892 367.185 544.703 367.202 526.514C367.203 525.393 367.204 524.271 367.205 523.116C367.21 517.491 367.215 511.866 367.22 506.241C367.261 459.578 367.332 412.916 367.421 366.254C365.838 366.498 365.838 366.498 364.222 366.746C361.281 367.139 358.565 367.379 355.612 367.379C354.718 367.381 353.823 367.383 352.901 367.386C351.938 367.383 350.974 367.381 349.982 367.379C348.943 367.38 347.905 367.381 346.834 367.383C343.36 367.386 339.886 367.383 336.412 367.38C333.918 367.381 331.424 367.383 328.93 367.386C324.256 367.389 319.581 367.392 314.907 367.392C305.708 367.392 296.51 367.405 287.311 367.422C285.86 367.424 284.409 367.427 282.958 367.429C280.759 367.433 278.56 367.437 276.361 367.441C268.076 367.456 259.792 367.47 251.507 367.482C250.372 367.484 250.372 367.484 249.213 367.485C236.972 367.503 224.73 367.506 212.489 367.504C199.893 367.503 187.298 367.521 174.703 367.555C166.95 367.576 159.198 367.581 151.446 367.567C145.486 367.557 139.527 367.574 133.568 367.6C131.139 367.607 128.71 367.605 126.281 367.594C104.125 367.501 84.4062 370.069 67.6986 385.984C66.9471 386.733 66.1956 387.482 65.4213 388.254C64.7832 388.869 64.1451 389.484 63.4877 390.117C51.5486 402.535 47.9442 419.07 48.0495 435.754C48.0457 437.061 48.0418 438.368 48.0379 439.715C48.0277 443.31 48.0359 446.904 48.0472 450.499C48.0561 454.388 48.0475 458.278 48.041 462.167C48.0319 468.897 48.0331 475.626 48.0412 482.356C48.0524 492.094 48.0433 501.832 48.0286 511.57C48.0049 527.384 47.9915 543.198 47.9875 559.011C47.9872 559.956 47.987 560.901 47.9867 561.875C47.9842 572.426 47.9836 582.977 47.9846 593.528C47.985 597.358 47.9853 601.188 47.9855 605.018C47.9856 605.963 47.9856 606.908 47.9857 607.882C47.9863 623.644 47.9714 639.406 47.9447 655.168C47.9289 664.882 47.9266 674.596 47.9418 684.31C47.9513 690.963 47.9465 697.616 47.9306 704.268C47.9219 708.105 47.9198 711.942 47.9351 715.779C47.9516 719.94 47.9373 724.101 47.9201 728.262C47.9299 729.472 47.9397 730.682 47.9498 731.928C47.8907 738.821 47.2418 743.441 43.4213 749.254C41.1481 750.992 39.0503 752.037 36.4213 753.254C35.7613 753.584 35.1013 753.914 34.4213 754.254C31.0538 754.574 27.6771 754.578 24.2963 754.629C23.3707 754.666 22.4452 754.704 21.4916 754.742C14.8997 754.826 10.466 753.608 5.42129 749.254C1.7164 744.504 0.297725 740.981 0.289864 735.018C0.286023 733.927 0.282181 732.835 0.278223 731.711C0.27909 730.507 0.279957 729.303 0.28085 728.062C0.277879 726.787 0.274908 725.511 0.271847 724.197C0.263768 720.649 0.261985 717.101 0.261248 713.553C0.259399 709.729 0.251852 705.904 0.245114 702.08C0.231519 693.709 0.225503 685.338 0.221104 676.968C0.218341 671.736 0.214102 666.504 0.209599 661.272C0.1974 646.774 0.187105 632.277 0.183724 617.779C0.183504 616.851 0.183284 615.922 0.183058 614.966C0.18284 614.035 0.182621 613.105 0.182396 612.146C0.181953 610.26 0.181507 608.374 0.181057 606.489C0.180836 605.553 0.180614 604.618 0.180386 603.654C0.176446 588.532 0.159023 573.411 0.135699 558.289C0.111922 542.747 0.0995196 527.206 0.0983565 511.665C0.0974428 502.946 0.0917665 494.227 0.0735362 485.508C0.0580494 478.075 0.0530641 470.642 0.0612739 463.208C0.0651516 459.423 0.0643945 455.637 0.050217 451.852C-0.0880818 412.576 6.99399 380.588 34.7338 351.504C55.7239 331.257 84.2562 319.887 113.42 319.989C114.458 319.985 115.496 319.98 116.566 319.976C120.009 319.963 123.451 319.965 126.894 319.967C129.377 319.961 131.86 319.954 134.343 319.946C139.673 319.931 145.003 319.922 150.332 319.918C158.052 319.913 165.772 319.894 173.492 319.872C186.039 319.836 198.586 319.808 211.133 319.786C211.882 319.784 212.632 319.783 213.404 319.782C218.722 319.772 224.041 319.763 229.359 319.754C235.432 319.744 241.506 319.733 247.579 319.722C248.327 319.721 249.076 319.72 249.847 319.718C262.348 319.696 274.85 319.665 287.352 319.63C295.047 319.608 302.742 319.594 310.437 319.588C316.339 319.583 322.242 319.568 328.144 319.55C330.556 319.544 332.968 319.542 335.38 319.543C364.901 319.553 390.096 313.383 413.421 294.254C414.395 293.456 415.368 292.658 416.371 291.836C434.189 276.654 443.979 256.383 450.421 234.254C450.785 233.006 451.148 231.758 451.523 230.473C454.057 219.913 453.61 208.724 453.66 197.93C453.664 197.168 453.668 196.405 453.672 195.62C453.693 191.587 453.707 187.554 453.716 183.521C453.728 179.411 453.762 175.301 453.802 171.191C453.828 167.98 453.836 164.768 453.84 161.557C453.845 160.044 453.856 158.531 453.875 157.019C454.22 127.454 441.866 100.32 421.671 79.0664C411.243 69.0438 399.418 62.3708 386.421 56.2539C385.558 55.7787 384.696 55.3035 383.807 54.8139C365.899 46.5619 345.224 47.5392 325.955 47.6477C321.791 47.6654 317.627 47.6537 313.463 47.6457C306.274 47.6355 299.086 47.6429 291.897 47.6623C281.495 47.69 271.093 47.6859 260.691 47.6738C243.797 47.6544 226.902 47.6542 210.007 47.6692C208.496 47.6705 208.496 47.6705 206.954 47.6719C202.87 47.6755 198.786 47.6792 194.702 47.6831C183.428 47.6935 172.154 47.7018 160.88 47.7083C159.363 47.7091 159.363 47.7092 157.816 47.7101C140.96 47.7193 124.104 47.7129 107.248 47.696C96.8688 47.6864 86.4899 47.6915 76.1109 47.7157C69.0107 47.7315 61.9106 47.7333 54.8104 47.7242C50.7161 47.7195 46.6221 47.7214 42.5278 47.7408C38.7786 47.7586 35.0298 47.7578 31.2806 47.7426C29.2863 47.7394 27.2921 47.7559 25.2979 47.7731C17.715 47.7199 11.7041 47.2531 5.90925 41.842C-0.57086 34.5887 -0.263255 26.3687 0.234768 17.1944C0.731427 12.0275 2.58755 8.89197 6.39785 5.4883C11.0779 1.84635 13.9685 0.129027 19.9538 0.128082Z" fill="url(#paint0_linear_10_4)"/>
<defs>
<linearGradient id="paint0_linear_10_4" x1="892.421" y1="755.254" x2="-50.0788" y2="-27.246" gradientUnits="userSpaceOnUse">
<stop stop-color="#245CFA"/>
<stop offset="1" stop-color="#153694"/>
</linearGradient>
</defs>
</svg>
